<svg width="1345" height="505" viewBox="0 0 1345 505" fill="none" xmlns="http://www.w3.org/2000/svg">
<rect width="1345" height="505" rx="60" fill="#FF3C00"/>
<path d="M182.4 361L100.8 149.2H151.2L213.3 320.5H192.6L255.6 149.2H305.4L222.9 361H182.4ZM350.55 361V152.2H397.65V361H350.55ZM284.25 190.3V149.2H463.95V190.3H284.25ZM555.619 364.3C539.819 364.3 525.119 361.6 511.519 356.2C498.119 350.6 486.319 342.8 476.119 332.8C466.119 322.8 458.319 311.2 452.719 298C447.119 284.6 444.319 270.2 444.319 254.8C444.319 239.4 447.119 225.1 452.719 211.9C458.319 198.5 466.119 186.9 476.119 177.1C486.119 167.3 497.819 159.7 511.219 154.3C524.819 148.7 539.519 145.9 555.319 145.9C572.119 145.9 587.019 148.6 600.019 154C613.219 159.4 624.719 166.8 634.519 176.2L603.019 208C597.419 202 590.619 197.3 582.619 193.9C574.819 190.5 565.719 188.8 555.319 188.8C546.119 188.8 537.619 190.4 529.819 193.6C522.219 196.6 515.619 201 510.019 206.8C504.619 212.6 500.319 219.6 497.119 227.8C494.119 236 492.619 245 492.619 254.8C492.619 264.8 494.119 273.9 497.119 282.1C500.319 290.3 504.619 297.3 510.019 303.1C515.619 308.9 522.219 313.4 529.819 316.6C537.619 319.8 546.119 321.4 555.319 321.4C566.119 321.4 575.519 319.7 583.519 316.3C591.519 312.9 598.419 308.2 604.219 302.2L636.019 334C625.819 343.4 614.119 350.8 600.919 356.2C587.919 361.6 572.819 364.3 555.619 364.3ZM730.559 364.6C714.559 364.6 699.759 361.8 686.159 356.2C672.759 350.6 660.959 342.8 650.759 332.8C640.559 322.8 632.659 311.2 627.059 298C621.459 284.6 618.659 270.2 618.659 254.8C618.659 239.2 621.459 224.8 627.059 211.6C632.659 198.4 640.459 186.9 650.459 177.1C660.459 167.1 672.159 159.4 685.559 154C699.159 148.4 713.959 145.6 729.959 145.6C745.759 145.6 760.359 148.4 773.759 154C787.359 159.4 799.159 167.1 809.159 177.1C819.359 186.9 827.259 198.5 832.859 211.9C838.459 225.1 841.259 239.5 841.259 255.1C841.259 270.5 838.459 284.9 832.859 298.3C827.259 311.5 819.459 323.1 809.459 333.1C799.459 342.9 787.659 350.6 774.059 356.2C760.659 361.8 746.159 364.6 730.559 364.6ZM729.959 321.7C742.559 321.7 753.559 318.9 762.959 313.3C772.559 307.7 779.959 299.9 785.159 289.9C790.359 279.7 792.959 268 792.959 254.8C792.959 244.8 791.459 235.8 788.459 227.8C785.459 219.6 781.159 212.6 775.559 206.8C769.959 200.8 763.259 196.3 755.459 193.3C747.859 190.1 739.359 188.5 729.959 188.5C717.359 188.5 706.259 191.3 696.659 196.9C687.259 202.3 679.959 210 674.759 220C669.559 229.8 666.959 241.4 666.959 254.8C666.959 264.8 668.459 273.9 671.459 282.1C674.459 290.3 678.659 297.4 684.059 303.4C689.659 309.2 696.359 313.7 704.159 316.9C711.959 320.1 720.559 321.7 729.959 321.7ZM847.158 361V149.2H880.158L894.258 191.5V361H847.158ZM993.258 361L868.458 201.1L880.158 149.2L1004.96 309.1L993.258 361ZM993.258 361L980.658 318.7V149.2H1027.76V361H993.258ZM1044.64 361V149.2H1077.64L1091.74 191.5V361H1044.64ZM1190.74 361L1065.94 201.1L1077.64 149.2L1202.44 309.1L1190.74 361ZM1190.74 361L1178.14 318.7V149.2H1225.24V361H1190.74Z" fill="white"/>
</svg>
